<svg xmlns="http://www.w3.org/2000/svg" xmlns:xlink="http://www.w3.org/1999/xlink" width="82" zoomAndPan="magnify" viewBox="0 0 61.5 57.749998" height="77" preserveAspectRatio="xMidYMid meet" version="1.0"><defs><g/><clipPath id="f9ec9d0c82"><path d="M 1.753906 0.109375 L 58.890625 0.109375 L 58.890625 57.246094 L 1.753906 57.246094 Z M 1.753906 0.109375 " clip-rule="nonzero"/></clipPath><clipPath id="2b0a54ccb7"><path d="M 30.324219 0.109375 C 14.546875 0.109375 1.753906 12.898438 1.753906 28.675781 C 1.753906 44.453125 14.546875 57.246094 30.324219 57.246094 C 46.101562 57.246094 58.890625 44.453125 58.890625 28.675781 C 58.890625 12.898438 46.101562 0.109375 30.324219 0.109375 Z M 30.324219 0.109375 " clip-rule="nonzero"/></clipPath></defs><g clip-path="url(#f9ec9d0c82)"><g clip-path="url(#2b0a54ccb7)"><path fill="#a4ddda" d="M 1.753906 0.109375 L 58.890625 0.109375 L 58.890625 57.246094 L 1.753906 57.246094 Z M 1.753906 0.109375 " fill-opacity="1" fill-rule="nonzero"/></g></g><g fill="#000000" fill-opacity="1"><g transform="translate(7.255084, 23.46895)"><g><path d="M 5.46875 0.140625 C 4.601562 0.140625 3.832031 -0.0546875 3.15625 -0.453125 C 2.476562 -0.847656 1.945312 -1.425781 1.5625 -2.1875 C 1.175781 -2.957031 0.984375 -3.878906 0.984375 -4.953125 C 0.984375 -6.023438 1.175781 -6.941406 1.5625 -7.703125 C 1.945312 -8.472656 2.476562 -9.054688 3.15625 -9.453125 C 3.832031 -9.847656 4.601562 -10.046875 5.46875 -10.046875 C 6.394531 -10.046875 7.164062 -9.867188 7.78125 -9.515625 C 8.394531 -9.171875 8.835938 -8.644531 9.109375 -7.9375 L 8.359375 -7.453125 L 8.203125 -7.453125 C 7.929688 -8.015625 7.578125 -8.410156 7.140625 -8.640625 C 6.703125 -8.878906 6.144531 -9 5.46875 -9 C 4.851562 -9 4.300781 -8.859375 3.8125 -8.578125 C 3.332031 -8.304688 2.945312 -7.867188 2.65625 -7.265625 C 2.375 -6.660156 2.234375 -5.890625 2.234375 -4.953125 C 2.234375 -4.015625 2.375 -3.242188 2.65625 -2.640625 C 2.945312 -2.035156 3.332031 -1.59375 3.8125 -1.3125 C 4.300781 -1.039062 4.851562 -0.90625 5.46875 -0.90625 C 6.1875 -0.90625 6.773438 -1.066406 7.234375 -1.390625 C 7.691406 -1.710938 8.03125 -2.234375 8.25 -2.953125 L 8.421875 -2.953125 L 9.203125 -2.578125 C 8.960938 -1.703125 8.523438 -1.03125 7.890625 -0.5625 C 7.253906 -0.09375 6.445312 0.140625 5.46875 0.140625 Z M 5.46875 0.140625 "/></g></g></g><g fill="#000000" fill-opacity="1"><g transform="translate(16.973337, 23.46895)"><g><path d="M 4.328125 0.140625 C 3.703125 0.140625 3.140625 0.0546875 2.640625 -0.109375 C 2.148438 -0.273438 1.738281 -0.492188 1.40625 -0.765625 C 1.082031 -1.046875 0.835938 -1.351562 0.671875 -1.6875 L 1.3125 -2.453125 L 1.484375 -2.453125 C 2.097656 -1.421875 3.046875 -0.90625 4.328125 -0.90625 C 5.078125 -0.90625 5.628906 -1.0625 5.984375 -1.375 C 6.347656 -1.6875 6.53125 -2.117188 6.53125 -2.671875 C 6.53125 -2.992188 6.46875 -3.269531 6.34375 -3.5 C 6.226562 -3.726562 6.035156 -3.921875 5.765625 -4.078125 C 5.492188 -4.242188 5.117188 -4.382812 4.640625 -4.5 L 3.484375 -4.78125 C 2.617188 -4.988281 1.984375 -5.316406 1.578125 -5.765625 C 1.171875 -6.222656 0.96875 -6.800781 0.96875 -7.5 C 0.96875 -7.988281 1.09375 -8.425781 1.34375 -8.8125 C 1.59375 -9.195312 1.960938 -9.5 2.453125 -9.71875 C 2.941406 -9.9375 3.523438 -10.046875 4.203125 -10.046875 C 4.941406 -10.046875 5.566406 -9.941406 6.078125 -9.734375 C 6.597656 -9.523438 7.007812 -9.207031 7.3125 -8.78125 L 6.75 -8.015625 L 6.578125 -8.015625 C 6.296875 -8.367188 5.957031 -8.625 5.5625 -8.78125 C 5.175781 -8.945312 4.722656 -9.03125 4.203125 -9.03125 C 3.515625 -9.03125 2.992188 -8.894531 2.640625 -8.625 C 2.296875 -8.363281 2.125 -8 2.125 -7.53125 C 2.125 -7.082031 2.25 -6.722656 2.5 -6.453125 C 2.757812 -6.191406 3.195312 -5.988281 3.8125 -5.84375 L 5 -5.5625 C 5.957031 -5.332031 6.648438 -4.984375 7.078125 -4.515625 C 7.515625 -4.054688 7.734375 -3.460938 7.734375 -2.734375 C 7.734375 -2.171875 7.609375 -1.671875 7.359375 -1.234375 C 7.109375 -0.804688 6.726562 -0.46875 6.21875 -0.21875 C 5.707031 0.0195312 5.078125 0.140625 4.328125 0.140625 Z M 4.328125 0.140625 "/></g></g></g><g fill="#000000" fill-opacity="1"><g transform="translate(25.464949, 23.46895)"><g/></g></g><g fill="#000000" fill-opacity="1"><g transform="translate(28.867016, 23.46895)"><g><path d="M 2.65625 -9.90625 L 2.65625 -0.96875 L 7.4375 -0.96875 L 7.4375 0 L 1.5 0 L 1.5 -9.90625 Z M 2.65625 -9.90625 "/></g></g></g><g fill="#000000" fill-opacity="1"><g transform="translate(36.721587, 23.46895)"><g><path d="M 3.078125 0.140625 C 2.347656 0.140625 1.773438 -0.0507812 1.359375 -0.4375 C 0.941406 -0.820312 0.734375 -1.367188 0.734375 -2.078125 C 0.734375 -2.523438 0.820312 -2.898438 1 -3.203125 C 1.1875 -3.503906 1.472656 -3.75 1.859375 -3.9375 C 2.242188 -4.132812 2.742188 -4.285156 3.359375 -4.390625 C 3.910156 -4.484375 4.328125 -4.582031 4.609375 -4.6875 C 4.890625 -4.800781 5.078125 -4.925781 5.171875 -5.0625 C 5.265625 -5.207031 5.3125 -5.390625 5.3125 -5.609375 C 5.3125 -5.941406 5.195312 -6.195312 4.96875 -6.375 C 4.738281 -6.5625 4.363281 -6.65625 3.84375 -6.65625 C 3.363281 -6.65625 2.953125 -6.5625 2.609375 -6.375 C 2.265625 -6.1875 1.945312 -5.90625 1.65625 -5.53125 L 1.515625 -5.53125 L 0.96875 -6.296875 C 1.289062 -6.703125 1.691406 -7.019531 2.171875 -7.25 C 2.660156 -7.488281 3.21875 -7.609375 3.84375 -7.609375 C 4.726562 -7.609375 5.378906 -7.414062 5.796875 -7.03125 C 6.210938 -6.644531 6.421875 -6.113281 6.421875 -5.4375 L 6.421875 -1.46875 C 6.421875 -1.050781 6.597656 -0.84375 6.953125 -0.84375 C 7.066406 -0.84375 7.179688 -0.863281 7.296875 -0.90625 L 7.390625 -0.875 L 7.515625 -0.109375 C 7.429688 -0.0546875 7.320312 -0.0195312 7.1875 0 C 7.050781 0.03125 6.914062 0.046875 6.78125 0.046875 C 6.375 0.046875 6.0625 -0.0390625 5.84375 -0.21875 C 5.632812 -0.394531 5.503906 -0.660156 5.453125 -1.015625 L 5.3125 -1.03125 C 5.09375 -0.632812 4.800781 -0.335938 4.4375 -0.140625 C 4.082031 0.046875 3.628906 0.140625 3.078125 0.140625 Z M 3.328125 -0.734375 C 3.742188 -0.734375 4.101562 -0.828125 4.40625 -1.015625 C 4.707031 -1.210938 4.941406 -1.484375 5.109375 -1.828125 C 5.273438 -2.179688 5.359375 -2.585938 5.359375 -3.046875 L 5.359375 -3.984375 L 5.21875 -4.015625 C 5.050781 -3.898438 4.847656 -3.800781 4.609375 -3.71875 C 4.367188 -3.644531 4.035156 -3.578125 3.609375 -3.515625 C 3.171875 -3.453125 2.820312 -3.359375 2.5625 -3.234375 C 2.3125 -3.117188 2.132812 -2.96875 2.03125 -2.78125 C 1.925781 -2.59375 1.875 -2.359375 1.875 -2.078125 C 1.875 -1.640625 2 -1.304688 2.25 -1.078125 C 2.507812 -0.847656 2.867188 -0.734375 3.328125 -0.734375 Z M 3.328125 -0.734375 "/></g></g></g><g fill="#000000" fill-opacity="1"><g transform="translate(44.454173, 23.46895)"><g><path d="M 4.96875 0.140625 C 4.40625 0.140625 3.921875 0.0351562 3.515625 -0.171875 C 3.109375 -0.390625 2.785156 -0.675781 2.546875 -1.03125 L 2.40625 -1 L 2.40625 0 L 1.296875 0 L 1.296875 -10.46875 L 2.40625 -10.46875 L 2.40625 -6.359375 L 2.546875 -6.328125 C 3.117188 -7.179688 3.945312 -7.609375 5.03125 -7.609375 C 5.644531 -7.609375 6.179688 -7.46875 6.640625 -7.1875 C 7.097656 -6.90625 7.453125 -6.472656 7.703125 -5.890625 C 7.960938 -5.304688 8.09375 -4.585938 8.09375 -3.734375 C 8.09375 -2.878906 7.957031 -2.160156 7.6875 -1.578125 C 7.425781 -1.003906 7.054688 -0.570312 6.578125 -0.28125 C 6.109375 0 5.570312 0.140625 4.96875 0.140625 Z M 4.703125 -0.84375 C 6.191406 -0.84375 6.9375 -1.804688 6.9375 -3.734375 C 6.9375 -4.734375 6.738281 -5.460938 6.34375 -5.921875 C 5.957031 -6.390625 5.410156 -6.625 4.703125 -6.625 C 4.003906 -6.625 3.445312 -6.382812 3.03125 -5.90625 C 2.613281 -5.4375 2.40625 -4.710938 2.40625 -3.734375 C 2.40625 -2.765625 2.613281 -2.039062 3.03125 -1.5625 C 3.445312 -1.082031 4.003906 -0.84375 4.703125 -0.84375 Z M 4.703125 -0.84375 "/></g></g></g><g fill="#000000" fill-opacity="1"><g transform="translate(13.985521, 42.811691)"><g><path d="M 2.65625 -9.90625 L 2.65625 -0.96875 L 7.4375 -0.96875 L 7.4375 0 L 1.5 0 L 1.5 -9.90625 Z M 2.65625 -9.90625 "/></g></g></g><g fill="#000000" fill-opacity="1"><g transform="translate(21.840092, 42.811691)"><g><path d="M 4.28125 0.140625 C 3.582031 0.140625 2.972656 -0.00390625 2.453125 -0.296875 C 1.929688 -0.597656 1.523438 -1.039062 1.234375 -1.625 C 0.953125 -2.207031 0.8125 -2.910156 0.8125 -3.734375 C 0.8125 -4.554688 0.953125 -5.257812 1.234375 -5.84375 C 1.523438 -6.425781 1.929688 -6.863281 2.453125 -7.15625 C 2.972656 -7.457031 3.582031 -7.609375 4.28125 -7.609375 C 4.988281 -7.609375 5.601562 -7.457031 6.125 -7.15625 C 6.644531 -6.863281 7.046875 -6.425781 7.328125 -5.84375 C 7.609375 -5.257812 7.75 -4.554688 7.75 -3.734375 C 7.75 -2.910156 7.609375 -2.207031 7.328125 -1.625 C 7.046875 -1.039062 6.644531 -0.597656 6.125 -0.296875 C 5.601562 -0.00390625 4.988281 0.140625 4.28125 0.140625 Z M 4.28125 -0.84375 C 5.03125 -0.84375 5.601562 -1.078125 6 -1.546875 C 6.394531 -2.015625 6.59375 -2.742188 6.59375 -3.734375 C 6.59375 -4.722656 6.394531 -5.453125 6 -5.921875 C 5.601562 -6.390625 5.03125 -6.625 4.28125 -6.625 C 3.539062 -6.625 2.972656 -6.382812 2.578125 -5.90625 C 2.179688 -5.4375 1.984375 -4.710938 1.984375 -3.734375 C 1.984375 -2.742188 2.179688 -2.015625 2.578125 -1.546875 C 2.972656 -1.078125 3.539062 -0.84375 4.28125 -0.84375 Z M 4.28125 -0.84375 "/></g></g></g><g fill="#000000" fill-opacity="1"><g transform="translate(30.419806, 42.811691)"><g><path d="M 3.84375 3.171875 C 2.664062 3.171875 1.804688 2.972656 1.265625 2.578125 C 0.722656 2.179688 0.453125 1.660156 0.453125 1.015625 C 0.453125 0.597656 0.578125 0.265625 0.828125 0.015625 C 1.085938 -0.234375 1.457031 -0.410156 1.9375 -0.515625 L 1.9375 -0.65625 C 1.707031 -0.789062 1.535156 -0.945312 1.421875 -1.125 C 1.304688 -1.300781 1.25 -1.507812 1.25 -1.75 C 1.25 -2.039062 1.335938 -2.273438 1.515625 -2.453125 C 1.703125 -2.640625 1.976562 -2.78125 2.34375 -2.875 L 2.34375 -3.015625 C 1.53125 -3.441406 1.125 -4.140625 1.125 -5.109375 C 1.125 -5.597656 1.234375 -6.03125 1.453125 -6.40625 C 1.671875 -6.789062 1.984375 -7.085938 2.390625 -7.296875 C 2.804688 -7.503906 3.285156 -7.609375 3.828125 -7.609375 C 4.460938 -7.609375 4.988281 -7.472656 5.40625 -7.203125 C 5.5625 -7.378906 5.675781 -7.566406 5.75 -7.765625 C 5.832031 -7.960938 5.890625 -8.191406 5.921875 -8.453125 L 6.0625 -8.53125 L 6.96875 -8.3125 C 6.914062 -7.9375 6.796875 -7.617188 6.609375 -7.359375 C 6.429688 -7.097656 6.175781 -6.878906 5.84375 -6.703125 L 5.84375 -6.5625 C 6.082031 -6.375 6.257812 -6.148438 6.375 -5.890625 C 6.488281 -5.640625 6.546875 -5.34375 6.546875 -5 C 6.546875 -4.53125 6.429688 -4.109375 6.203125 -3.734375 C 5.984375 -3.359375 5.664062 -3.0625 5.25 -2.84375 C 4.84375 -2.632812 4.367188 -2.53125 3.828125 -2.53125 C 3.765625 -2.53125 3.65625 -2.535156 3.5 -2.546875 C 3.3125 -2.554688 3.175781 -2.5625 3.09375 -2.5625 C 2.863281 -2.5625 2.675781 -2.5 2.53125 -2.375 C 2.394531 -2.25 2.328125 -2.09375 2.328125 -1.90625 C 2.328125 -1.675781 2.398438 -1.503906 2.546875 -1.390625 C 2.703125 -1.273438 2.953125 -1.210938 3.296875 -1.203125 L 5.0625 -1.140625 C 5.832031 -1.117188 6.398438 -0.941406 6.765625 -0.609375 C 7.128906 -0.285156 7.3125 0.175781 7.3125 0.78125 C 7.3125 1.226562 7.191406 1.628906 6.953125 1.984375 C 6.710938 2.347656 6.332031 2.632812 5.8125 2.84375 C 5.300781 3.0625 4.644531 3.171875 3.84375 3.171875 Z M 3.828125 -3.484375 C 4.359375 -3.484375 4.769531 -3.617188 5.0625 -3.890625 C 5.351562 -4.171875 5.5 -4.554688 5.5 -5.046875 C 5.5 -5.566406 5.351562 -5.96875 5.0625 -6.25 C 4.78125 -6.53125 4.367188 -6.671875 3.828125 -6.671875 C 3.296875 -6.671875 2.890625 -6.53125 2.609375 -6.25 C 2.328125 -5.96875 2.1875 -5.566406 2.1875 -5.046875 C 2.1875 -4.546875 2.328125 -4.160156 2.609375 -3.890625 C 2.890625 -3.617188 3.296875 -3.484375 3.828125 -3.484375 Z M 3.84375 2.21875 C 4.394531 2.21875 4.84375 2.15625 5.1875 2.03125 C 5.539062 1.914062 5.796875 1.753906 5.953125 1.546875 C 6.109375 1.347656 6.1875 1.125 6.1875 0.875 C 6.1875 0.65625 6.144531 0.476562 6.0625 0.34375 C 5.976562 0.207031 5.84375 0.101562 5.65625 0.03125 C 5.46875 -0.03125 5.210938 -0.0703125 4.890625 -0.09375 L 3.21875 -0.171875 L 2.984375 -0.171875 C 2.046875 -0.160156 1.578125 0.203125 1.578125 0.921875 C 1.578125 1.785156 2.332031 2.21875 3.84375 2.21875 Z M 3.84375 2.21875 "/></g></g></g><g fill="#000000" fill-opacity="1"><g transform="translate(38.077844, 42.811691)"><g><path d="M 4.28125 0.140625 C 3.582031 0.140625 2.972656 -0.00390625 2.453125 -0.296875 C 1.929688 -0.597656 1.523438 -1.039062 1.234375 -1.625 C 0.953125 -2.207031 0.8125 -2.910156 0.8125 -3.734375 C 0.8125 -4.554688 0.953125 -5.257812 1.234375 -5.84375 C 1.523438 -6.425781 1.929688 -6.863281 2.453125 -7.15625 C 2.972656 -7.457031 3.582031 -7.609375 4.28125 -7.609375 C 4.988281 -7.609375 5.601562 -7.457031 6.125 -7.15625 C 6.644531 -6.863281 7.046875 -6.425781 7.328125 -5.84375 C 7.609375 -5.257812 7.75 -4.554688 7.75 -3.734375 C 7.75 -2.910156 7.609375 -2.207031 7.328125 -1.625 C 7.046875 -1.039062 6.644531 -0.597656 6.125 -0.296875 C 5.601562 -0.00390625 4.988281 0.140625 4.28125 0.140625 Z M 4.28125 -0.84375 C 5.03125 -0.84375 5.601562 -1.078125 6 -1.546875 C 6.394531 -2.015625 6.59375 -2.742188 6.59375 -3.734375 C 6.59375 -4.722656 6.394531 -5.453125 6 -5.921875 C 5.601562 -6.390625 5.03125 -6.625 4.28125 -6.625 C 3.539062 -6.625 2.972656 -6.382812 2.578125 -5.90625 C 2.179688 -5.4375 1.984375 -4.710938 1.984375 -3.734375 C 1.984375 -2.742188 2.179688 -2.015625 2.578125 -1.546875 C 2.972656 -1.078125 3.539062 -0.84375 4.28125 -0.84375 Z M 4.28125 -0.84375 "/></g></g></g></svg>